HIERARCHY
ROOT hip
{
  OFFSET 0.00112043 5.09927 -9.65472
  CHANNELS 6 Xposition Yposition Zposition Zrotation Xrotation Yrotation
  JOINT abdomen
  {
    OFFSET 0 -1.186 -1.5018
    CHANNELS 3 Zrotation Xrotation Yrotation
    JOINT abdomen2
    {
      OFFSET 0 9.964 0.2134
      CHANNELS 3 Zrotation Xrotation Yrotation
      JOINT chest
      {
        OFFSET 0 13.134 -3.2573
        CHANNELS 3 Zrotation Xrotation Yrotation
        JOINT neck
        {
          OFFSET 0 20.686 -1.6905
          CHANNELS 3 Zrotation Xrotation Yrotation
          JOINT head
          {
            OFFSET 0 7.238 -0.1237
            CHANNELS 3 Zrotation Xrotation Yrotation
            End Site
            {
              OFFSET 0 0 0
            }
          }
        }
        JOINT lCollar
        {
          OFFSET 1.7069 20.075 5.0056
          CHANNELS 3 Zrotation Xrotation Yrotation
          JOINT lShldr
          {
            OFFSET 13.6458 -0.047 -4.849
            CHANNELS 3 Zrotation Xrotation Yrotation
            JOINT lForeArm
            {
              OFFSET 28.3255 -0.9759 2.2888
              CHANNELS 3 Zrotation Xrotation Yrotation
              JOINT lHand
              {
                OFFSET 22.1583 -0.53 10.8316
                CHANNELS 3 Zrotation Xrotation Yrotation
                JOINT lThumb1
                {
                  OFFSET 0.786 0.112 2.5817
                  CHANNELS 3 Zrotation Xrotation Yrotation
                  JOINT lThumb2
                  {
                    OFFSET 0.3601 -0.878 4.2331
                    CHANNELS 3 Zrotation Xrotation Yrotation
                    JOINT lThumb2_End
                    {
                      OFFSET 1.8127 -1.216 2.2227
                      CHANNELS 3 Zrotation Xrotation Yrotation
                      End Site
                      {
                        OFFSET 0.0181 -0.0122 0.0222
                      }
                    }
                  }
                }
                JOINT lCarpal1
                {
                  OFFSET 0.9571 1.114 1.7695
                  CHANNELS 3 Zrotation Xrotation Yrotation
                  JOINT lIndex1
                  {
                    OFFSET 4.1246 0.487 4.1451
                    CHANNELS 3 Zrotation Xrotation Yrotation
                    JOINT lIndex2
                    {
                      OFFSET 3.4052 -1.454 2.7682
                      CHANNELS 3 Zrotation Xrotation Yrotation
                      JOINT lIndex2_End
                      {
                        OFFSET 1.4531 -1.795 1.2713
                        CHANNELS 3 Zrotation Xrotation Yrotation
                        End Site
                        {
                          OFFSET 0.0145 -0.0179 0.0127
                        }
                      }
                    }
                  }
                  JOINT lMid1
                  {
                    OFFSET 5.6954 0.21 2.1184
                    CHANNELS 3 Zrotation Xrotation Yrotation
                    JOINT lMid2
                    {
                      OFFSET 3.9766 -1.54 2.3863
                      CHANNELS 3 Zrotation Xrotation Yrotation
                      JOINT lMid2_End
                      {
                        OFFSET 1.4042 -1.926 1.125
                        CHANNELS 3 Zrotation Xrotation Yrotation
                        End Site
                        {
                          OFFSET 0.014 -0.0193 0.0113
                        }
                      }
                    }
                  }
                }
                JOINT lCarpal2
                {
                  OFFSET 2.0956 0.66 -0.3894
                  CHANNELS 3 Zrotation Xrotation Yrotation
                  JOINT lRing1
                  {
                    OFFSET 5.0395 -0.09 2.4971
                    CHANNELS 3 Zrotation Xrotation Yrotation
                    JOINT lRing2
                    {
                      OFFSET 3.7921 -1.552 1.4806
                      CHANNELS 3 Zrotation Xrotation Yrotation
                      JOINT lRing2_End
                      {
                        OFFSET 1.4655 -1.808 0.9609
                        CHANNELS 3 Zrotation Xrotation Yrotation
                        End Site
                        {
                          OFFSET 0.0147 -0.0181 0.0096
                        }
                      }
                    }
                  }
                  JOINT lPinky1
                  {
                    OFFSET 4.9141 -1.269 0.3591
                    CHANNELS 3 Zrotation Xrotation Yrotation
                    JOINT lPinky2
                    {
                      OFFSET 3.1477 -1.685 0.8462
                      CHANNELS 3 Zrotation Xrotation Yrotation
                      JOINT lPinky2_End
                      {
                        OFFSET 0.8055 -1.585 0.7955
                        CHANNELS 3 Zrotation Xrotation Yrotation
                        End Site
                        {
                          OFFSET 0.0081 -0.0158 0.008
                        }
                      }
                    }
                  }
                }
              }
            }
          }
        }
        JOINT rCollar
        {
          OFFSET -1.7069 20.075 5.0056
          CHANNELS 3 Zrotation Xrotation Yrotation
          JOINT rShldr
          {
            OFFSET -13.6458 -0.047 -4.849
            CHANNELS 3 Zrotation Xrotation Yrotation
            JOINT rForeArm
            {
              OFFSET -28.3255 -0.9759 2.2888
              CHANNELS 3 Zrotation Xrotation Yrotation
              JOINT rHand
              {
                OFFSET -22.1583 -0.53 10.8316
                CHANNELS 3 Zrotation Xrotation Yrotation
                JOINT rThumb1
                {
                  OFFSET -0.786 0.112 2.5817
                  CHANNELS 3 Zrotation Xrotation Yrotation
                  JOINT rThumb2
                  {
                    OFFSET -0.3601 -0.878 4.2331
                    CHANNELS 3 Zrotation Xrotation Yrotation
                    JOINT rThumb2_End
                    {
                      OFFSET -1.8127 -1.216 2.2227
                      CHANNELS 3 Zrotation Xrotation Yrotation
                      End Site
                      {
                        OFFSET -0.0181 -0.0122 0.0222
                      }
                    }
                  }
                }
                JOINT rCarpal1
                {
                  OFFSET -0.9571 1.114 1.7695
                  CHANNELS 3 Zrotation Xrotation Yrotation
                  JOINT rIndex1
                  {
                    OFFSET -4.1246 0.487 4.1451
                    CHANNELS 3 Zrotation Xrotation Yrotation
                    JOINT rIndex2
                    {
                      OFFSET -3.4052 -1.454 2.7682
                      CHANNELS 3 Zrotation Xrotation Yrotation
                      JOINT rIndex2_End
                      {
                        OFFSET -1.4531 -1.795 1.2713
                        CHANNELS 3 Zrotation Xrotation Yrotation
                        End Site
                        {
                          OFFSET -0.0145 -0.018 0.0127
                        }
                      }
                    }
                  }
                  JOINT rMid1
                  {
                    OFFSET -5.6954 0.21 2.1184
                    CHANNELS 3 Zrotation Xrotation Yrotation
                    JOINT rMid2
                    {
                      OFFSET -3.9766 -1.54 2.3863
                      CHANNELS 3 Zrotation Xrotation Yrotation
                      JOINT rMid2_End
                      {
                        OFFSET -1.4042 -1.926 1.125
                        CHANNELS 3 Zrotation Xrotation Yrotation
                        End Site
                        {
                          OFFSET -0.014 -0.0193 0.0113
                        }
                      }
                    }
                  }
                }
                JOINT rCarpal2
                {
                  OFFSET -2.0956 0.66 -0.3894
                  CHANNELS 3 Zrotation Xrotation Yrotation
                  JOINT rRing1
                  {
                    OFFSET -5.0395 -0.09 2.4971
                    CHANNELS 3 Zrotation Xrotation Yrotation
                    JOINT rRing2
                    {
                      OFFSET -3.7921 -1.552 1.4806
                      CHANNELS 3 Zrotation Xrotation Yrotation
                      JOINT rRing2_End
                      {
                        OFFSET -1.4655 -1.808 0.9609
                        CHANNELS 3 Zrotation Xrotation Yrotation
                        End Site
                        {
                          OFFSET -0.0147 -0.0181 0.0096
                        }
                      }
                    }
                  }
                  JOINT rPinky1
                  {
                    OFFSET -4.9141 -1.269 0.3592
                    CHANNELS 3 Zrotation Xrotation Yrotation
                    JOINT rPinky2
                    {
                      OFFSET -3.1477 -1.685 0.8462
                      CHANNELS 3 Zrotation Xrotation Yrotation
                      JOINT rPinky2_End
                      {
                        OFFSET -0.8055 -1.585 0.7955
                        CHANNELS 3 Zrotation Xrotation Yrotation
                        End Site
                        {
                          OFFSET -0.0081 -0.0158 0.008
                        }
                      }
                    }
                  }
                }
              }
            }
          }
        }
      }
    }
  }
  JOINT lThigh
  {
    OFFSET 8.367 -8.2066 0.5982
    CHANNELS 3 Zrotation Xrotation Yrotation
    JOINT lShin
    {
      OFFSET 2.1923 -43.463 -0.4932
      CHANNELS 3 Zrotation Xrotation Yrotation
      JOINT lFoot
      {
        OFFSET 0.7333 -45.8593 -2.6451
        CHANNELS 3 Zrotation Xrotation Yrotation
        End Site
        {
          OFFSET 2.6618 -4.2699 12.3931
        }
      }
    }
  }
  JOINT rThigh
  {
    OFFSET -8.367 -8.2066 0.5982
    CHANNELS 3 Zrotation Xrotation Yrotation
    JOINT rShin
    {
      OFFSET -2.1923 -43.463 -0.4931
      CHANNELS 3 Zrotation Xrotation Yrotation
      JOINT rFoot
      {
        OFFSET -0.7333 -45.8593 -2.6451
        CHANNELS 3 Zrotation Xrotation Yrotation
        End Site
        {
          OFFSET -2.6618 -4.2699 12.3931
        }
      }
    }
  }
}
MOTION
Frames:	5
Frame Time:	0.0333333
0 91.7903 2.51682 0 0 -0 0 0 -0 0 0 -0 0 0 -0 0 0 -0 0 0 -0 0 0 -0 1.66051 0.0835086 5.75766 -0.0175111 0.895433 15.7816 7.95139e-016 -1.98785e-016 -0 5.46658e-016 -3.97569e-016 -0 5.96354e-016 0 -0 3.97569e-016 1.98785e-016 9.54166e-015 1.49089e-016 -3.97569e-016 -0 6.4605e-016 0 3.18055e-015 5.96354e-016 0 3.18055e-015 8.94531e-016 -1.98785e-016 6.36111e-015 6.4605e-016 0 3.18055e-015 5.96354e-016 0 3.18055e-015 8.94531e-016 -1.98785e-016 6.36111e-015 1.49089e-016 -3.97569e-016 -0 6.4605e-016 0 3.18055e-015 5.96354e-016 0 3.18055e-015 8.94531e-016 -1.98785e-016 6.36111e-015 6.4605e-016 0 3.18055e-015 5.96354e-016 0 3.18055e-015 8.94531e-016 -1.98785e-016 6.36111e-015 0 0 -0 -1.4496 0.0636048 -5.0245 -1.74811 1.20616 -16.8394 -1.19271e-015 1.98785e-016 -3.18055e-015 -3.97569e-016 1.98785e-016 -3.18055e-015 -2.98177e-016 1.98785e-016 -3.18055e-015 -2.98177e-016 3.97569e-016 -0 4.96962e-016 0 -6.36111e-015 -9.93923e-017 3.97569e-016 -0 -8.94531e-016 5.96354e-016 -0 -3.97569e-016 3.97569e-016 -0 -9.93923e-017 3.97569e-016 -0 -8.94531e-016 5.96354e-016 -0 -3.97569e-016 3.97569e-016 -0 4.96962e-016 0 -6.36111e-015 -9.93923e-017 3.97569e-016 -0 -8.94531e-016 5.96354e-016 -0 -3.97569e-016 3.97569e-016 -0 -9.93923e-017 3.97569e-016 -0 -8.94531e-016 5.96354e-016 -0 -3.97569e-016 3.97569e-016 -0 -4.66111 -0.998717 0.12318 0.00986924 1.54847 0.176523 4.65186 -0.572283 -0.254274 4.66111 -0.998765 -0.123176 -0.00986867 1.54869 -0.176537 -4.65186 -0.572453 0.25427 
-1.83334 85.0127 26.5258 -6.41248 29.3133 -167.071 -0.66121 4.15255 -0.237465 -1.31029 8.30754 -0.428438 -1.31029 8.30754 -0.42844 0.0606568 -0.0859182 0.0967237 0.0228683 -0.0977424 0.00857939 -27.654 -9.87981 -28.3088 -10.1068 -23.4088 -17.4224 -18.7828 7.63399 -19.9991 -54.8856 10.5557 15.5748 4.93741e-007 -5.20722e-007 -4.62297e-007 -4.93741e-007 5.20722e-007 4.62297e-007 -9.87482e-007 1.04144e-006 9.24595e-007 -3.18055e-015 4.77083e-015 1.59028e-015 4.93741e-007 -5.20722e-007 -4.62297e-007 -4.93741e-007 5.20722e-007 4.62297e-007 -9.87482e-007 1.04144e-006 9.24595e-007 4.93741e-007 -5.20722e-007 -4.62297e-007 -4.93741e-007 5.20722e-007 4.62297e-007 -9.87482e-007 1.04144e-006 9.24595e-007 -3.18055e-015 4.77083e-015 1.59028e-015 4.93741e-007 -5.20722e-007 -4.62297e-007 -4.93741e-007 5.20722e-007 4.62297e-007 -9.87482e-007 1.04144e-006 9.24595e-007 4.93741e-007 -5.20722e-007 -4.62297e-007 -4.93741e-007 5.20722e-007 4.62297e-007 -9.87482e-007 1.04144e-006 9.24595e-007 26.4161 0.9193 8.13223 36.9167 -7.77563 10.5954 16.934 11.0668 -13.7249 51.9222 21.372 2.96113 -1.31765e-007 3.52546e-006 -5.41643e-008 -6.89117e-007 2.84203e-006 1.36685e-006 -4.49023e-007 2.2351e-006 1.15749e-006 -1.19271e-015 3.18055e-015 2.38542e-015 -1.31765e-007 3.52546e-006 -5.41643e-008 -6.89117e-007 2.84203e-006 1.36685e-006 -4.49023e-007 2.2351e-006 1.15749e-006 -1.31765e-007 3.52546e-006 -5.41643e-008 -6.89117e-007 2.84203e-006 1.36685e-006 -4.49023e-007 2.2351e-006 1.15749e-006 -1.19271e-015 3.18055e-015 2.38542e-015 -1.31765e-007 3.52546e-006 -5.41643e-008 -6.89117e-007 2.84203e-006 1.36685e-006 -4.49023e-007 2.2351e-006 1.15749e-006 -1.31765e-007 3.52546e-006 -5.41643e-008 -6.89117e-007 2.84203e-006 1.36685e-006 -4.49023e-007 2.2351e-006 1.15749e-006 109.743 -14.2514 138.021 -162.851 34.9086 131.505 14.202 49.7188 16.844 -178.193 -13.6448 173.581 -133.966 38.1264 104.272 1.61016 1.77116 23.7115 
-2.32569 84.5552 24.731 -1.08884e-014 28.8893 -180 -0.622638 4.22517 -0.220076 -1.234 8.45251 -0.395573 -1.234 8.4525 -0.395573 0.278722 -0.392238 0.442955 0.104734 -0.447007 0.0394917 -24.9507 -10.6745 -28.2995 -8.52547 -22.3706 -15.2232 -17.3158 7.00482 -16.7809 -52.704 10.0719 13.8689 5.02313e-007 -5.09074e-007 -4.65888e-007 -5.02313e-007 5.09074e-007 4.65888e-007 -1.00463e-006 1.01815e-006 9.31776e-007 -3.18055e-015 6.36111e-015 -6.36111e-015 5.02313e-007 -5.09074e-007 -4.65888e-007 -5.02313e-007 5.09074e-007 4.65888e-007 -1.00463e-006 1.01815e-006 9.31776e-007 5.02313e-007 -5.09074e-007 -4.65888e-007 -5.02313e-007 5.09074e-007 4.65888e-007 -1.00463e-006 1.01815e-006 9.31776e-007 -3.18055e-015 6.36111e-015 -6.36111e-015 5.02313e-007 -5.09074e-007 -4.65888e-007 -5.02313e-007 5.09074e-007 4.65888e-007 -1.00463e-006 1.01815e-006 9.31776e-007 5.02313e-007 -5.09074e-007 -4.65888e-007 -5.02313e-007 5.09074e-007 4.65888e-007 -1.00463e-006 1.01815e-006 9.31776e-007 22.3145 -0.675773 7.39796 35.7375 -7.07527 10.2519 18.7174 10.846 -13.4323 47.6073 18.8202 3.37098 1.6201e-007 -3.23699e-006 -9.71971e-007 5.69145e-008 3.6561e-006 2.675e-007 1.6201e-007 -3.23699e-006 -9.71971e-007 -7.15625e-015 -3.18055e-015 7.95139e-016 1.6201e-007 -3.23699e-006 -9.71971e-007 5.69145e-008 3.6561e-006 2.675e-007 1.6201e-007 -3.23699e-006 -9.71971e-007 1.6201e-007 -3.23699e-006 -9.71971e-007 5.69145e-008 3.6561e-006 2.675e-007 1.6201e-007 -3.23699e-006 -9.71971e-007 -7.15625e-015 -3.18055e-015 7.95139e-016 1.6201e-007 -3.23699e-006 -9.71971e-007 5.69145e-008 3.6561e-006 2.675e-007 1.6201e-007 -3.23699e-006 -9.71971e-007 1.6201e-007 -3.23699e-006 -9.71971e-007 5.69145e-008 3.6561e-006 2.675e-007 1.6201e-007 -3.23699e-006 -9.71971e-007 105.173 -20.7951 132.502 -152.834 40.3582 124.224 15.2715 46.1039 14.163 -178.794 -23.3098 173.13 -126.225 42.6455 101.746 1.14742 2.4286 22.2783 
-2.21543 83.8128 24.7987 -1.09956e-014 29.556 -180 -0.620931 4.52493 -0.218774 -1.23025 9.05195 -0.39 -1.23025 9.05194 -0.39 0.489961 -0.685214 0.776763 0.183596 -0.782643 0.0696894 -24.2216 -11.8694 -29.8988 -8.21945 -22.4978 -14.6324 -16.8034 6.63535 -15.7258 -53.7051 9.91905 13.5445 -1.00324e-006 1.0197e-006 9.31496e-007 -1.00324e-006 1.0197e-006 9.31496e-007 -1.50486e-006 1.52954e-006 1.39724e-006 4.41391e-032 -1.59028e-015 1.59028e-015 -1.00324e-006 1.0197e-006 9.31496e-007 -1.00324e-006 1.0197e-006 9.31496e-007 -1.50486e-006 1.52954e-006 1.39724e-006 -1.00324e-006 1.0197e-006 9.31496e-007 -1.00324e-006 1.0197e-006 9.31496e-007 -1.50486e-006 1.52954e-006 1.39724e-006 4.41391e-032 -1.59028e-015 1.59028e-015 -1.00324e-006 1.0197e-006 9.31496e-007 -1.00324e-006 1.0197e-006 9.31496e-007 -1.50486e-006 1.52954e-006 1.39724e-006 -1.00324e-006 1.0197e-006 9.31496e-007 -1.00324e-006 1.0197e-006 9.31496e-007 -1.50486e-006 1.52954e-006 1.39724e-006 19.8787 -2.12882 7.08948 36.8641 -6.80821 10.8047 21.4375 11.2034 -13.0041 46.6093 17.3427 3.44786 -4.38723e-007 -8.37827e-007 1.40965e-006 1.10348e-031 -3.18055e-015 1.98785e-015 -2.38542e-015 0 2.38542e-015 -2.38542e-015 -3.18055e-015 2.78299e-015 -4.38723e-007 -8.37827e-007 1.40965e-006 2.38542e-015 -6.36111e-015 -3.57812e-015 -3.97569e-016 3.18055e-015 3.97569e-016 -4.38723e-007 -8.37827e-007 1.40965e-006 2.38542e-015 -6.36111e-015 -3.57812e-015 -3.97569e-016 3.18055e-015 3.97569e-016 -2.38542e-015 -3.18055e-015 2.78299e-015 -4.38723e-007 -8.37827e-007 1.40965e-006 2.38542e-015 -6.36111e-015 -3.57812e-015 -3.97569e-016 3.18055e-015 3.97569e-016 -4.38723e-007 -8.37827e-007 1.40965e-006 2.38542e-015 -6.36111e-015 -3.57812e-015 -3.97569e-016 3.18055e-015 3.97569e-016 105.803 -20.7986 132.866 -152.815 40.383 124.244 14.3575 46.9604 15.3095 -179.053 -23.6267 172.929 -125.662 42.9298 101.4 0.778623 3.25854 22.1823 
-2.10494 83.071 24.8652 -1.11043e-014 30.2228 -180 -0.619162 4.82507 -0.217457 -1.22643 9.65219 -0.384415 -1.22643 9.65219 -0.384415 0.703077 -0.977557 1.11196 0.262727 -1.11861 0.100383 -23.5216 -13.0871 -31.4943 -7.91168 -22.6221 -14.0403 -16.2841 6.27501 -14.6673 -54.7074 9.77172 13.2174 4.72714e-006 -1.19362e-006 3.07753e-006 -1.00219e-006 1.02091e-006 9.31237e-007 4.22604e-006 -6.83165e-007 3.54315e-006 -3.18055e-015 3.18055e-015 -1.59028e-015 4.72714e-006 -1.19362e-006 3.07753e-006 -1.00219e-006 1.02091e-006 9.31237e-007 4.22604e-006 -6.83165e-007 3.54315e-006 4.72714e-006 -1.19362e-006 3.07753e-006 -1.00219e-006 1.02091e-006 9.31237e-007 4.22604e-006 -6.83165e-007 3.54315e-006 -3.18055e-015 3.18055e-015 -1.59028e-015 4.72714e-006 -1.19362e-006 3.07753e-006 -1.00219e-006 1.02091e-006 9.31237e-007 4.22604e-006 -6.83165e-007 3.54315e-006 4.72714e-006 -1.19362e-006 3.07753e-006 -1.00219e-006 1.02091e-006 9.31237e-007 4.22604e-006 -6.83165e-007 3.54315e-006 17.4208 -3.57409 6.71723 37.9883 -6.53019 11.3523 24.1709 11.5821 -12.5912 45.6194 15.8616 3.49746 2.82027e-006 3.61186e-007 8.79124e-007 4.39562e-007 8.37499e-007 -1.41014e-006 1.16193e-006 -4.80305e-006 -4.76013e-006 7.55382e-015 3.18055e-015 -3.18055e-015 2.82027e-006 3.61186e-007 8.79124e-007 4.39562e-007 8.37499e-007 -1.41014e-006 1.16193e-006 -4.80305e-006 -4.76013e-006 2.82027e-006 3.61186e-007 8.79124e-007 4.39562e-007 8.37499e-007 -1.41014e-006 1.16193e-006 -4.80305e-006 -4.76013e-006 7.55382e-015 3.18055e-015 -3.18055e-015 2.82027e-006 3.61186e-007 8.79124e-007 4.39562e-007 8.37499e-007 -1.41014e-006 1.16193e-006 -4.80305e-006 -4.76013e-006 2.82027e-006 3.61186e-007 8.79124e-007 4.39562e-007 8.37499e-007 -1.41014e-006 1.16193e-006 -4.80305e-006 -4.76013e-006 106.431 -20.7985 133.226 -152.795 40.4081 124.263 13.4051 47.8044 16.4931 -179.315 -23.9423 172.725 -125.094 43.211 101.049 0.41028 4.08883 22.0911 
